HIERARCHY
ROOT Hip
{
	OFFSET 0 1.131 0.0052
	CHANNELS 6 Xposition Yposition Zposition Xrotation Yrotation Zrotation
	JOINT Abdomen
	{
		OFFSET 0 -0.047353 -0.05
		CHANNELS 3 Xrotation Zrotation Yrotation
		JOINT Chest
		{
			OFFSET 0 0.132153 0.007439
			CHANNELS 3 Xrotation Zrotation Yrotation
			JOINT Neck
			{
				OFFSET 0 0.3078 0.006161
				CHANNELS 3 Xrotation Zrotation Yrotation
				JOINT Head_comp
				{
					OFFSET 0 0.0884 0.013
					CHANNELS 3 Xrotation Yrotation Zrotation
					End Site
					{
						OFFSET -0 0.156 0.0624
					}
				}
			}
			JOINT Left_Collar
			{
				OFFSET 0.02282 0.250342 0.017193
				CHANNELS 2 Yrotation Zrotation
				JOINT Left_Shoulder
				{
					OFFSET 0.15421 0 0
					CHANNELS 3 Xrotation Yrotation Zrotation
					JOINT Left_Forearm
					{
						OFFSET 0.265212 0 0
						CHANNELS 2 Yrotation Xrotation
						JOINT Left_Hand
						{
							OFFSET 0.27571 0 0
							CHANNELS 2 Zrotation Yrotation
							JOINT L1ProxPhalanx
							{
								OFFSET 0.014142 0.001733 0.014142
								CHANNELS 3 Yrotation Zrotation Xrotation
								JOINT L1MidPhalanx
								{
									OFFSET 0.04 0 0
									CHANNELS 1 Zrotation
									JOINT L1DistPhalanx
									{
										OFFSET 0.035 0 0
										CHANNELS 1 Zrotation
										End Site
										{
											OFFSET 0.029 -0 -0
										}
									}
								}
							}
							JOINT L2ProxPhalanx
							{
								OFFSET 0.0821037 0.001578 0.0219996
								CHANNELS 2 Yrotation Zrotation
								JOINT L2MidPhalanx
								{
									OFFSET 0.04 0 0
									CHANNELS 1 Zrotation
									JOINT L2DistPhalanx
									{
										OFFSET 0.028 0 0
										CHANNELS 1 Zrotation
										End Site
										{
											OFFSET 0.02 -0 -0
										}
									}
								}
							}
							JOINT L3ProxPhalanx
							{
								OFFSET 0.083 0 0
								CHANNELS 2 Yrotation Zrotation
								JOINT L3MidPhalanx
								{
									OFFSET 0.053 0 0
									CHANNELS 1 Zrotation
									JOINT L3DistPhalanx
									{
										OFFSET 0.03 0 0
										CHANNELS 1 Zrotation
										End Site
										{
											OFFSET 0.023 -0 -0
										}
									}
								}
							}
							JOINT L4ProxPhalanx
							{
								OFFSET 0.077274 -0.000761 -0.0207055
								CHANNELS 2 Yrotation Zrotation
								JOINT L4MidPhalanx
								{
									OFFSET 0.05 0 0
									CHANNELS 1 Zrotation
									JOINT L4DistPhalanx
									{
										OFFSET 0.03 0 0
										CHANNELS 1 Zrotation
										End Site
										{
											OFFSET 0.023 -0 -0
										}
									}
								}
							}
							JOINT L5ProxPhalanx
							{
								OFFSET 0.0675499 -0.001644 -0.039
								CHANNELS 2 Yrotation Zrotation
								JOINT L5MidPhalanx
								{
									OFFSET 0.04 0 0
									CHANNELS 1 Zrotation
									JOINT L5DistPhalanx
									{
										OFFSET 0.021 0 0
										CHANNELS 1 Zrotation
										End Site
										{
											OFFSET 0.022 -0 -0
										}
									}
								}
							}
						}
					}
				}
			}
			JOINT Right_Collar
			{
				OFFSET -0.02282 0.250342 0.017193
				CHANNELS 2 Yrotation Zrotation
				JOINT Right_Shoulder
				{
					OFFSET -0.15421 0 0
					CHANNELS 3 Xrotation Yrotation Zrotation
					JOINT Right_Forearm
					{
						OFFSET -0.265212 0 0
						CHANNELS 2 Yrotation Xrotation
						JOINT Right_Hand
						{
							OFFSET -0.27571 3e-006 0
							CHANNELS 2 Zrotation Yrotation
							JOINT R1ProxPhalanx
							{
								OFFSET -0.014142 0.001733 0.014142
								CHANNELS 3 Yrotation Zrotation Xrotation
								JOINT R1MidPhalanx
								{
									OFFSET -0.04 0 0
									CHANNELS 1 Zrotation
									JOINT R1DistPhalanx
									{
										OFFSET -0.035 0 0
										CHANNELS 1 Zrotation
										End Site
										{
											OFFSET -0.029 -0 -0
										}
									}
								}
							}
							JOINT R2ProxPhalanx
							{
								OFFSET -0.0821037 0.001578 0.0219996
								CHANNELS 2 Yrotation Zrotation
								JOINT R2MidPhalanx
								{
									OFFSET -0.04 0 0
									CHANNELS 1 Zrotation
									JOINT R2DistPhalanx
									{
										OFFSET -0.028 0 0
										CHANNELS 1 Zrotation
										End Site
										{
											OFFSET -0.02 -0 -0
										}
									}
								}
							}
							JOINT R3ProxPhalanx
							{
								OFFSET -0.083 0 0
								CHANNELS 2 Yrotation Zrotation
								JOINT R3MidPhalanx
								{
									OFFSET -0.053 0 0
									CHANNELS 1 Zrotation
									JOINT R3DistPhalanx
									{
										OFFSET -0.03 0 0
										CHANNELS 1 Zrotation
										End Site
										{
											OFFSET -0.023 -0 -0
										}
									}
								}
							}
							JOINT R4ProxPhalanx
							{
								OFFSET -0.077274 -0.000761 -0.0207055
								CHANNELS 2 Yrotation Zrotation
								JOINT R4MidPhalanx
								{
									OFFSET -0.05 0 0
									CHANNELS 1 Zrotation
									JOINT R4DistPhalanx
									{
										OFFSET -0.03 0 0
										CHANNELS 1 Zrotation
										End Site
										{
											OFFSET -0.023 -0 -0
										}
									}
								}
							}
							JOINT R5ProxPhalanx
							{
								OFFSET -0.0675499 -0.001644 -0.039
								CHANNELS 2 Yrotation Zrotation
								JOINT R5MidPhalanx
								{
									OFFSET -0.04 0 0
									CHANNELS 1 Zrotation
									JOINT R5DistPhalanx
									{
										OFFSET -0.021 0 0
										CHANNELS 1 Zrotation
										End Site
										{
											OFFSET -0.022 -0 -0
										}
									}
								}
							}
						}
					}
				}
			}
		}
	}
	JOINT Left_Thigh
	{
		OFFSET 0.1118 -0.1612 -0.0442
		CHANNELS 3 Xrotation Zrotation Yrotation
		JOINT Left_Shin
		{
			OFFSET 0 -0.477856 0
			CHANNELS 1 Xrotation
			JOINT Left_Foot
			{
				OFFSET 0 -0.431952 0
				CHANNELS 2 Xrotation Zrotation
				JOINT Left_Toe
				{
					OFFSET 0 -0.0442 0.119
					CHANNELS 1 Xrotation
					End Site
					{
						OFFSET -0 -0 0.07
					}
				}
			}
		}
	}
	JOINT Right_Thigh
	{
		OFFSET -0.1118 -0.1612 -0.0442
		CHANNELS 3 Xrotation Zrotation Yrotation
		JOINT Right_Shin
		{
			OFFSET 0 -0.477856 0
			CHANNELS 1 Xrotation
			JOINT Right_Foot
			{
				OFFSET 0 -0.431952 0
				CHANNELS 2 Xrotation Zrotation
				JOINT Right_Toe
				{
					OFFSET 0 -0.0442 0.119
					CHANNELS 1 Xrotation
					End Site
					{
						OFFSET -0 -0 0.07
					}
				}
			}
		}
	}
}
MOTION
Frames: 11
Frame Time: 0.009975
-0.10217 -0.060149 0.0528879 4.36033e-013 7.80007e-008 -5.10901e-006 0 0 0 0 0 0 0 0 0 0 0 0 0 0 -0 0 -0 0 0 0 0 -37.9386 -28.008 73.698 -26.2405 -28.4472 -13.118 -18.2167 -29.0248 -19.6359 -0 -22.4358 -32.6146 -28.1246 8.63175 -30.7051 -32.2053 -23.7634 7.83088 -26.7354 -35.1526 -30.0193 0 0 -0 0 -0 0 0 0 0 37.9386 28.008 73.698 26.2405 28.4472 13.118 18.2167 29.0248 19.6359 0 22.4358 32.6146 28.1246 -8.63175 30.7051 32.2053 23.7634 -7.83088 26.7354 35.1526 30.0193 0.863277 -0.606488 -0.00913857 0.0240216 -0.88725 0.606562 0 0.874682 -0.606486 -0.0092593 2.41484e-006 -0.874636 0.606562 0 
-0.10217 -0.060149 0.0528879 4.36033e-013 7.80007e-008 -5.10901e-006 0 0 0 0 0 0 0 0 0 0 0 0 0 0 -0 0 -0 0 0 0 0 -37.9386 -28.008 73.698 -26.2405 -28.4472 -13.118 -18.2167 -29.0248 -19.6359 -0 -22.4358 -32.6146 -28.1246 8.63175 -30.7051 -32.2053 -23.7634 7.83088 -26.7354 -35.1526 -30.0193 0 0 -0 0 -0 0 0 0 0 37.9386 28.008 73.698 26.2405 28.4472 13.118 18.2167 29.0248 19.6359 0 22.4358 32.6146 28.1246 -8.63175 30.7051 32.2053 23.7634 -7.83088 26.7354 35.1526 30.0193 0.863277 -0.606488 -0.00913857 0.0240216 -0.88725 0.606562 0 0.874682 -0.606486 -0.0092593 2.41484e-006 -0.874636 0.606562 0 
-0.10142 -0.060295 0.059994 1.13616e-014 1.17914e-007 -5.08274e-006 0 -0 0 0 -0 0 0 -0 0 -0.710292 0.291137 -9.06849e-006 0.0230034 -3.95888 29.1801 -13.0615 -69.9837 -80.2178 -0.00239615 0.00188017 -0.00372192 -38.0242 -27.9889 73.7272 -26.2843 -28.4049 -13.0576 -18.2754 -29.0797 -19.6127 0 -22.4836 -32.6516 -28.0739 8.5961 -30.7115 -32.2443 -23.7346 7.82173 -26.7217 -35.1468 -29.9692 -0.0230034 3.95888 29.1801 13.0615 69.9837 80.2178 -0.00239615 -0.00188017 0.00372192 38.0242 27.9889 73.7272 26.2843 28.4049 13.0576 18.2754 29.0797 19.6127 0 22.4836 32.6516 28.0739 -8.5961 30.7115 32.2443 23.7346 -7.82173 26.7217 35.1468 29.9692 1.31097 -0.653695 -0.014997 0.0239015 -1.33479 0.653872 0 1.32232 -0.653692 -0.0151268 1.69901e-006 -1.32223 0.653872 0 
-0.10135 -0.0603083 0.060593 -3.39121e-013 1.21279e-007 -5.10822e-006 0 -0 0 0 -0 0 0 -0 0 -0.714192 0.291466 2.47135e-011 0.023119 -3.97877 30.6041 -11.2047 -67.3626 -82.7904 -0.00240614 0.00188961 -0.00374062 -37.9386 -28.008 73.698 -26.2405 -28.4472 -13.118 -18.2167 -29.0248 -19.6359 0 -22.4358 -32.6146 -28.1246 8.63175 -30.7051 -32.2053 -23.7634 7.83088 -26.7354 -35.1526 -30.0193 -0.023119 3.97877 30.6041 11.2047 67.3626 82.7904 -0.00240614 -0.00188961 0.00374062 37.9386 28.008 73.698 26.2405 28.4472 13.118 18.2167 29.0248 19.6359 0 22.4358 32.6146 28.1246 -8.63175 30.7051 32.2053 23.7634 -7.83088 26.7354 35.1526 30.0193 1.34865 -0.658096 -0.0154931 0.0240216 -1.37258 0.658284 0 1.36005 -0.658093 -0.0156241 1.70755e-006 -1.35996 0.658284 0 
-0.10135 -0.0603093 0.060636 1.30257e-013 1.2152e-007 -5.10822e-006 0 -0 0 0 -0 0 0 -0 0 -0.714228 0.291453 1.06052e-014 0.023119 -3.97877 30.6133 -11.1901 -67.3438 -82.8068 -0.00240614 0.00188961 -0.00374062 -37.9386 -28.008 73.698 -26.2405 -28.4472 -13.118 -18.2167 -29.0248 -19.6359 0 -22.4358 -32.6146 -28.1246 8.63175 -30.7051 -32.2053 -23.7634 7.83088 -26.7354 -35.1526 -30.0193 -0.023119 3.97877 30.6133 11.1901 67.3438 82.8068 -0.00240614 -0.00188961 0.00374062 37.9386 28.008 73.698 26.2405 28.4472 13.118 18.2167 29.0248 19.6359 0 22.4358 32.6146 28.1246 -8.63175 30.7051 32.2053 23.7634 -7.83088 26.7354 35.1526 30.0193 1.35136 -0.658118 -0.0155248 0.0240216 -1.37529 0.658306 0 1.36276 -0.658114 -0.0156557 2.82041e-006 -1.36267 0.658306 0 
-0.10135 -0.0603094 0.0606368 1.35025e-013 1.21522e-007 -5.10822e-006 0 -0 0 0 -0 0 0 -0 0 -0.714229 0.291453 3.88256e-019 0.023119 -3.97877 30.6133 -11.1901 -67.3438 -82.8068 -0.00240614 0.00188961 -0.00374062 -37.9386 -28.008 73.698 -26.2405 -28.4472 -13.118 -18.2167 -29.0248 -19.6359 0 -22.4358 -32.6146 -28.1246 8.63175 -30.7051 -32.2053 -23.7634 7.83088 -26.7354 -35.1526 -30.0193 -0.023119 3.97877 30.6133 11.1901 67.3438 82.8068 -0.00240614 -0.00188961 0.00374062 37.9386 28.008 73.698 26.2405 28.4472 13.118 18.2167 29.0248 19.6359 0 22.4358 32.6146 28.1246 -8.63175 30.7051 32.2053 23.7634 -7.83088 26.7354 35.1526 30.0193 1.3514 -0.658118 -0.0155253 0.0240216 -1.37533 0.658306 0 1.36281 -0.658115 -0.0156563 1.7216e-006 -1.36272 0.658306 0 
-0.10135 -0.0603094 0.0606368 1.87305e-013 1.21524e-007 -5.10821e-006 0 -0 0 0 -0 0 0 -0 0 -0.71423 0.291454 3.88256e-019 0.023119 -3.97877 30.6133 -11.1901 -67.3438 -82.8068 -0.00240614 0.00188961 -0.00374062 -37.9386 -28.008 73.698 -26.2405 -28.4472 -13.118 -18.2167 -29.0248 -19.6359 0 -22.4358 -32.6146 -28.1246 8.63175 -30.7051 -32.2053 -23.7634 7.83088 -26.7354 -35.1526 -30.0193 -0.023119 3.97877 30.6133 11.1901 67.3438 82.8068 -0.00240614 -0.00188961 0.00374062 37.9386 28.008 73.698 26.2405 28.4472 13.118 18.2167 29.0248 19.6359 0 22.4358 32.6146 28.1246 -8.63175 30.7051 32.2053 23.7634 -7.83088 26.7354 35.1526 30.0193 1.3514 -0.658118 -0.0155253 0.0240216 -1.37534 0.658306 0 1.36281 -0.658115 -0.0156563 1.70755e-006 -1.36272 0.658306 0 
-0.10135 -0.0603094 0.0606368 5.47205e-013 1.21524e-007 -5.10822e-006 0 -0 0 0 -0 0 0 -0 0 -0.71423 0.291454 -7.76513e-019 0.023119 -3.97877 30.6133 -11.1901 -67.3438 -82.8068 -0.00240614 0.00188961 -0.00374062 -37.9386 -28.008 73.698 -26.2405 -28.4472 -13.118 -18.2167 -29.0248 -19.6359 0 -22.4358 -32.6146 -28.1246 8.63175 -30.7051 -32.2053 -23.7634 7.83088 -26.7354 -35.1526 -30.0193 -0.023119 3.97877 30.6133 11.1901 67.3438 82.8068 -0.00240614 -0.00188961 0.00374062 37.9386 28.008 73.698 26.2405 28.4472 13.118 18.2167 29.0248 19.6359 0 22.4358 32.6146 28.1246 -8.63175 30.7051 32.2053 23.7634 -7.83088 26.7354 35.1526 30.0193 1.3514 -0.658118 -0.0155253 0.0240216 -1.37534 0.658306 0 1.36281 -0.658115 -0.0156563 4.22596e-008 -1.36272 0.658306 0 
-0.10135 -0.0603094 0.0606368 2.48982e-014 1.21524e-007 -5.10821e-006 0 -0 0 0 -0 0 0 -0 0 -0.71423 0.291454 -3.88256e-019 0.023119 -3.97877 30.6133 -11.1901 -67.3438 -82.8068 -0.00240614 0.00188961 -0.00374062 -37.9386 -28.008 73.698 -26.2405 -28.4472 -13.118 -18.2167 -29.0248 -19.6359 0 -22.4358 -32.6146 -28.1246 8.63175 -30.7051 -32.2053 -23.7634 7.83088 -26.7354 -35.1526 -30.0193 -0.023119 3.97877 30.6133 11.1901 67.3438 82.8068 -0.00240614 -0.00188961 0.00374062 37.9386 28.008 73.698 26.2405 28.4472 13.118 18.2167 29.0248 19.6359 0 22.4358 32.6146 28.1246 -8.63175 30.7051 32.2053 23.7634 -7.83088 26.7354 35.1526 30.0193 1.3514 -0.658118 -0.0155253 0.0240216 -1.37534 0.658306 0 1.36281 -0.658115 -0.0156563 0 -1.36272 0.658306 0 
-0.10135 -0.0603094 0.0606368 -2.92561e-013 1.21524e-007 -5.10822e-006 0 -0 0 0 -0 0 0 -0 0 -0.71423 0.291454 -0 0.023119 -3.97877 30.6133 -11.1901 -67.3438 -82.8068 -0.00240614 0.00188961 -0.00374062 -37.9386 -28.008 73.698 -26.2405 -28.4472 -13.118 -18.2167 -29.0248 -19.6359 0 -22.4358 -32.6146 -28.1246 8.63175 -30.7051 -32.2053 -23.7634 7.83088 -26.7354 -35.1526 -30.0193 -0.023119 3.97877 30.6133 11.1901 67.3438 82.8068 -0.00240614 -0.00188961 0.00374062 37.9386 28.008 73.698 26.2405 28.4472 13.118 18.2167 29.0248 19.6359 0 22.4358 32.6146 28.1246 -8.63175 30.7051 32.2053 23.7634 -7.83088 26.7354 35.1526 30.0193 1.3514 -0.658118 -0.0155253 0.0240216 -1.37534 0.658306 0 1.36281 -0.658115 -0.0156563 0 -1.36272 0.658306 0 
-0.10135 -0.0603094 0.0606368 3.89966e-013 1.21524e-007 -5.10822e-006 0 -0 0 0 -0 0 0 -0 0 -0.71423 0.291454 -3.88256e-019 0.023119 -3.97877 30.6133 -11.1901 -67.3438 -82.8068 -0.00240614 0.00188961 -0.00374062 -37.9386 -28.008 73.698 -26.2405 -28.4472 -13.118 -18.2167 -29.0248 -19.6359 0 -22.4358 -32.6146 -28.1246 8.63175 -30.7051 -32.2053 -23.7634 7.83088 -26.7354 -35.1526 -30.0193 -0.023119 3.97877 30.6133 11.1901 67.3438 82.8068 -0.00240614 -0.00188961 0.00374062 37.9386 28.008 73.698 26.2405 28.4472 13.118 18.2167 29.0248 19.6359 0 22.4358 32.6146 28.1246 -8.63175 30.7051 32.2053 23.7634 -7.83088 26.7354 35.1526 30.0193 1.3514 -0.658118 -0.0155253 0.0240216 -1.37534 0.658306 0 1.36281 -0.658115 -0.0156563 2.76086e-006 -1.36272 0.658306 0 
